<?xml version="1.0" encoding="UTF-8"?><svg id="Layer_1" xmlns="http://www.w3.org/2000/svg" viewBox="0 0 568.89 102.97"><defs><style>.cls-1{fill:#5a4c4c;}</style></defs><path class="cls-1" d="M55.05,46.98l-23.33,8.49c-.38.14-.63.5-.63.9v15.23c0,.53.43.96.96.96.11,0,.22-.02.33-.06l21.41-7.79c1.53-.56,2.55-2.01,2.55-3.64v-13.19c0-.53-.43-.96-.96-.96-.11,0-.22.02-.33.06"/><path class="cls-1" d="M56.35,78.26l-29.08,10.58c-5.7,2.07-11.72-2.15-11.72-8.21V0H0v102.97h56.35v-24.72"/><path class="cls-1" d="M31.09,0v35.69c0,2.69,2.67,4.56,5.2,3.64l23.88-8.69c5.7-2.07,11.72,2.15,11.72,8.21v64.12h31.09V0H31.09"/><path class="cls-1" d="M373.45,53.07c0-12.82,8.4-24.31,23.04-24.31s23.18,11.14,23.18,23.95-8.4,24.37-23.04,24.37-23.18-11.14-23.18-24.02M413.02,53c0-10.44-5.81-19.26-16.39-19.26s-16.53,8.68-16.53,19.12,5.81,19.26,16.39,19.26,16.53-8.75,16.53-19.12ZM423.19,72.26c.98-.21,3.43-.56,5.46-.56v-24.79c-1.82-.17-3.64-.26-5.46-.28v-3.92c1.89-.28,6.65-.56,11.56-.56l-.28,5.39h.14c2.66-3.57,6.09-5.81,10.79-5.81,7.14,0,10.02,4.69,10.02,10.58v19.4c1.96,0,4.41.35,5.32.56v3.99h-16.6v-3.99c.91-.21,3.29-.56,5.32-.56v-18.49c0-4.06-1.61-6.58-5.74-6.58-3.85,0-6.93,2.8-9.17,5.81v19.26c2.03,0,4.41.35,5.39.56v3.99h-16.74v-3.99M463.04,72.26c.98-.21,3.36-.56,5.39-.56V30.44c-1.82-.17-3.64-.26-5.46-.28v-3.99c1.96-.21,6.72-.56,11.7-.56l-.35,5.53v40.55c2.03,0,4.41.35,5.39.56v3.99h-16.67v-3.99M482.31,72.26c.98-.21,3.43-.56,5.46-.56v-24.79c-1.82-.17-3.64-.26-5.46-.28v-3.92c1.89-.28,6.72-.56,11.77-.56l-.35,5.53v24.02c2.03,0,4.41.35,5.39.56v3.99h-16.81v-3.99M486.58,32.4c0-2.24,1.82-4.13,4.2-4.13s4.13,1.89,4.13,4.13c.02,2.26-1.8,4.11-4.06,4.13h-.07c-2.38,0-4.2-1.82-4.2-4.13ZM501.71,72.26c.98-.21,3.43-.56,5.46-.56v-24.79c-1.82-.17-3.64-.26-5.46-.28v-3.92c1.89-.28,6.66-.56,11.56-.56l-.28,5.39h.14c2.66-3.57,6.09-5.81,10.79-5.81,7.14,0,10.02,4.69,10.02,10.58v19.4c1.96,0,4.41.35,5.32.56v3.99h-16.6v-3.99c.91-.21,3.29-.56,5.32-.56v-18.49c0-4.06-1.61-6.58-5.74-6.58-3.85,0-6.93,2.8-9.17,5.81v19.26c2.03,0,4.41.35,5.39.56v3.99h-16.74v-3.99M539.82,59.86c0-11.14,6.58-18.14,15.97-18.14,8.26,0,13.1,5.67,13.1,14.57,0,.84-.07,2.52-.14,3.29h-22.55c.07,7.91,3.85,12.75,10.93,12.75,3.78,0,7.07-1.75,8.61-2.87l2.17,4.2c-1.75,1.19-5.6,3.43-11.84,3.43-10.51,0-16.25-7.21-16.25-17.23M562.72,55.31c0-4.97-1.96-9.11-7.49-9.11-4.97,0-8.27,3.57-8.83,9.11h16.32Z"/><path class="cls-1" d="M144.49,72.26c.98-.21,3.5-.56,5.53-.56v-37.54c-2.03,0-4.55-.35-5.53-.56v-3.99h18.63c8.68,0,15.41,3.08,15.41,11.49,0,5.6-3.29,9.24-8.4,10.58v.14c5.74.98,10.44,4.76,10.44,11.28,0,9.39-7.21,13.17-17.65,13.17h-18.42v-3.99M156.26,49.7h6.16c6.79,0,9.74-2.73,9.74-7.92s-3.36-7.42-9.6-7.42h-6.3v15.34ZM156.26,71.42h6.44c7.77,0,11.35-2.66,11.35-8.4s-3.22-8.75-11-8.75h-6.79v17.16h0ZM185.19,59.86c0-11.14,6.58-18.14,15.97-18.14,8.26,0,13.1,5.67,13.1,14.57,0,.84-.07,2.52-.14,3.29h-22.55c.07,7.91,3.85,12.75,10.93,12.75,3.78,0,7.07-1.75,8.62-2.87l2.17,4.2c-1.75,1.19-5.6,3.43-11.84,3.43-10.51,0-16.25-7.21-16.25-17.23M208.1,55.31c0-4.97-1.96-9.11-7.49-9.11-4.97,0-8.27,3.57-8.83,9.11h16.32ZM217.63,72.26c.98-.21,3.43-.56,5.46-.56v-24.79c-1.82-.17-3.64-.26-5.46-.28v-3.92c1.89-.28,6.65-.56,11.56-.56l-.28,6.16h.14c1.26-2.94,4.34-6.58,8.82-6.58,2.17,0,3.29.49,3.78.7l-1.47,5.53c-.42-.21-1.33-.63-3.08-.63-4.55,0-7.56,4.97-8.12,6.09v18.28c2.03,0,5.18.35,6.16.56v3.99h-17.51v-3.99M280.58,72.26c.98-.21,3.36-.56,5.39-.56V30.44c-1.82-.17-3.64-.26-5.46-.28v-3.99c1.96-.21,6.72-.56,11.7-.56l-.35,5.53v40.55c2.03,0,4.41.35,5.39.56v3.99h-16.67v-3.99M298.38,59.86c0-11.14,6.58-18.14,15.97-18.14,8.26,0,13.1,5.67,13.1,14.57,0,.84-.07,2.52-.14,3.29h-22.55c.07,7.91,3.85,12.75,10.93,12.75,3.78,0,7.08-1.75,8.61-2.87l2.17,4.2c-1.75,1.19-5.6,3.43-11.84,3.43-10.51,0-16.25-7.21-16.25-17.23M321.28,55.31c0-4.97-1.96-9.11-7.49-9.11-4.97,0-8.27,3.57-8.83,9.11h16.32,0ZM331.09,59.86c0-11.14,6.58-18.14,15.97-18.14,8.26,0,13.1,5.67,13.1,14.57,0,.84-.07,2.52-.14,3.29h-22.55c.07,7.91,3.85,12.75,10.93,12.75,3.78,0,7.07-1.75,8.61-2.87l2.17,4.2c-1.75,1.19-5.6,3.43-11.84,3.43-10.51,0-16.25-7.21-16.25-17.23M353.99,55.31c0-4.97-1.96-9.11-7.49-9.11-4.97,0-8.27,3.57-8.83,9.11h16.32,0Z"/><path class="cls-1" d="M277.44,71.87c-.62.14-1.32.14-1.73.14-1.59,0-3.14.08-4.66-1.3-1.24-1.11-2.7-3.11-4.08-5.26l-5.85-9.16,9.39-9.25c2.03-.07,4.27-.35,5.18-.56v-3.92h-15.97v3.92c.7.21,2.45.42,4.13.56l-11.7,11.92v-27.82l.35-5.53c-4.97,0-9.74.35-11.7.56v3.99c1.05,0,3.22.07,5.46.28v41.25c-2.03,0-4.41.35-5.39.56v3.99h16.04v-3.99c-.98-.21-2.8-.56-4.76-.56v-6.58l5.2-5.12,5.86,9.23c1.18,1.87,2.63,3.87,3.87,4.98,1.73,1.52,3.88,2.32,7.2,2.32,1.04,0,2.56-.21,3.46-.42l-.31-4.24h0Z"/></svg>