<?xml version="1.0" encoding="UTF-8"?><svg id="Layer_1" xmlns="http://www.w3.org/2000/svg" viewBox="0 0 1015.32 157.43"><defs><style>.cls-1{fill:#5a4c4c;}</style></defs><path class="cls-1" d="M3.84,0c6.89,2.7,12.17,7.4,17.28,12.59,13.28,13.49,22.25,29.78,26.51,48.13,1.86,8,2.28,22.26,1.53,27.21-3.51,23.23-15.54,46.48-33.2,62.07-3.51,3.1-7.66,5.46-11.88,7.43h-1.44C1.21,156.42.82,155.03,0,153.59v-1.92c.35-.28.36-.71.45-1.11.95-4.26,3.78-16.43,4.05-18.27.32-2.17.5-2.75,1.01-4.75,1.23-4.85,1.76-9.81,2.88-14.64.79-3.42,2.01-11.06,2.15-12.25,1.54-13.33,1.19-27.19.03-40.54-.3-3.42-.68-6.66-.97-10.07-.24-2.88-3.17-16.03-4.14-19.86-.57-2.25-.62-3.3-1-5.48-.27-1.54-3.34-13.87-4.04-18.52-.06-.38-.13-.87-.42-1.14v-.48C.63,2.74,1.18,1.11,2.88,0c0,0,.96,0,.96,0Z"/><path class="cls-1" d="M1015.32,85.2v3.6c-.68,1.47-1.43,1.8-2.99,1.93l-49.22-.02c-.73-.13-1.65.67-1.78,1.34-.15.81-.29,2.89,0,5.26s1.09,4.45,1.51,5.4c5.09,11.45,21.34,12.59,27,1.07.83-1.69,1.45-5.46,3.38-5.98,5.63.06,11.3.27,16.93.14.98-.02,1.77-.33,2.75.25,1.03.62.77,1.63.56,2.58-2.81,12.33-13.87,23.57-26.47,25.85-1.89.34-8.85.83-10.7.84-3.3.02-6.93-.41-9.53-.79-6.61-.96-14.5-5.96-19.02-10.73-8.17-8.63-9.65-18.62-9.49-30.13.03-1.82.05-5.23.31-6.89.25-1.61,2.33-7.83,3.06-9.42,3.11-6.85,10.57-14.11,17.47-17.09,21.59-9.31,48.28-.55,54.18,23.44l2.03,9.37.02-.02ZM962.61,78.4c.22.22.53.37.81.5l26.69-.06c1.86-1.23.8-3.04.12-4.67-2.43-5.85-6.81-9.96-13.43-9.85s-10.35,2.78-13.12,8.48c-.68,1.39-2.27,4.4-1.07,5.6Z"/><path class="cls-1" d="M534.13,49.26c3.49-.14,9.71,1.22,12.85,2.85,3.77,1.95,4.99,4.25,7.85,6.79.87.77,1.47,1.07,2.5.38,1.21-.81,2.69-2.73,4.12-3.8,13.73-10.34,36.35-8.01,42.6,9.63.69,1.95,1.44,3.99,1.39,6.53v51.37c-.19,4.06-5.15,2.53-7.79,2.5-3.12-.04-6.26-.04-9.38,0-2.35.03-5.09,1.12-6.65-1.49l-.24-50.64c-2.2-8.84-14.77-9.56-20.7-4.27-2.48,2.21-1.57,2.85-1.54,5.63.19,16.42-.05,32.92-.14,49.32-.34,1-1.88,1.58-2.87,1.69-4.14.47-9.56-.3-13.93-.25-2.32.03-5.11,1.07-6.65-1.49l-.2-50.92c-2.99-9.99-18-9.32-22.49-.93.04,16.38-.23,32.78-.06,49.16.01,1.32.66,2-.27,3.31-1.31,1.86-4.24.89-6.07.87-3.6-.05-7.23-.05-10.82,0-1.59.02-4.63.91-5.77-.69-.78-1.1-.32-1.91-.33-3-.3-23.31.1-46.66.11-69.97l1.67-.97,19.87.06c3.34.75.14,6.91,2.93,6.89.94,0,3.46-2.72,4.46-3.44,4.25-3.06,10.3-4.91,15.53-5.13h.02Z"/><path class="cls-1" d="M181.83,30.77c17.11.51,34.91-1.65,51.72,1.92,12.11,2.57,24.31,11.35,29.5,22.82,6.89,15.24,6.29,39.54-4.61,52.84-10.5,12.81-24.14,16.6-40.18,17.42-12.02.26-23.89.83-35.3,0-1.78-.13-3.06-.5-3.24-2.52l.12-90.86c.36-.83,1.15-1.33,1.99-1.61h0ZM206.07,49.73c-.82.18-1.2.92-1.5,1.62v54.26c.59,1.2,1.63,1.73,2.91,1.88,2.32.27,6.96.21,9.34.04,2.15-.16,4.97-.5,7.16-.76,5.39-.62,10.87-4.55,13.83-8.97,7.12-10.63,6.64-34.01-3.48-42.85-7.92-6.93-18.55-5.06-28.27-5.22h0Z"/><path class="cls-1" d="M897.68,49.27c6.2-.51,14.7,1.94,19.8,5.5,5.92,4.12,8.86,9.51,11.26,16.1,1.21,3.32,2.7,10.82,2.84,13.24.15,2.8.22,7.07-.04,9.82-.16,1.65-.42,3.01-.97,5.15-1.62,6.36-3.35,11.51-7.31,16.82-3.46,4.64-11.95,10.12-17.76,10.8-9.77,1.14-18.63-.35-25.9-7.17-.57-.54-1.88-2.34-2.28-2.52-1.43-.65-1.84.77-1.86,1.92-.16,9.13,1.03,19.84.2,28.81-.29,3.16-3.77,2.49-6.13,2.51-2.51,0-5.13-.23-7.67-.25-2.26-.02-4.88.43-6.98.26-1.6-.13-3.23-.64-3.24-2.52V53.87c-.1-1.45.81-2.84,2.29-3l20.11.05c1.98,1.15,1.65,2.88,1.62,4.88-.02,1.32-.97,3.35,1.07,3.73.91,0,3.62-3.32,4.55-4.11,4.34-3.68,10.77-5.7,16.39-6.16h0ZM891.2,64.87c-15.61,1.65-16.55,18.32-14.83,30.54.39,2.79.24,3.68,1.48,6.44,3.89,8.65,10.41,10.13,19.27,8.78,1.44-.22,5.26-3.14,6.23-4.33,1.31-1.61,3.95-6.77,4.19-8.77.5-4.15,1.15-8.98.76-13.18-.13-1.37-.86-6-1.2-7.2-.46-1.66-3.03-6.25-4.21-7.55-2.29-2.53-8.3-5.09-11.7-4.73h.01Z"/><path class="cls-1" d="M807.94,48.79c7.03-.51,19.17,1.96,24.99,6.07,7.94,5.61,10.55,15.45,10.59,24.71.04,11.17-.31,22.35-.26,33.6.02,3.23.29,6.58.2,9.83-.12,4.11-6.59,2.53-9.18,2.51-4.08-.04-8.12.22-12.2.2-3.48-.71-1.11-4.88-2.44-6.19-1.32-1.3-3.14,1.15-4.32,1.93-8.54,5.67-20.41,6.99-30.07,3.66-8.79-3.03-14.28-9.28-14.23-18.9.05-11.19,9.49-16.52,18.74-19.92,7.3-2.68,15.64-3.99,22.72-7.04,2.71-1.17,7.44-4.43,7.74-7.63.23-2.43-3.47-6.06-5.7-6.74-2.39-.73-8.58-.47-11.1.04-3.46.7-7.24,5.33-8.67,8.37-.89,1.9-.39,3.27-3.19,3.53-5.48.52-11.93-.25-17.48-.3-1.02-.33-1.48-1.08-1.32-2.16.11-.81,1.53-4.58,1.93-5.53,5.4-12.94,20.05-19.07,33.25-20.02v-.02ZM818,89.81c-1.69.34-4.02,1.94-5.63,2.54-4.87,1.8-11.17,2.95-15.3,6.3-4.4,3.56-4.08,10.75,1.48,12.91,4.25,1.65,11.7.72,15.75-1.18,2.55-1.2,5.65-2.97,5.92-6.08.37-4.19-.29-8.94-.02-13.19-.17-1.17-1.15-1.5-2.21-1.29h.01Z"/><path class="cls-1" d="M456.84,119.35c-1.22-1.02-2.6,1.19-3.59,1.9-11.95,8.5-38.43,8.06-43.56-8.15-5.44-17.22,8.51-23.78,22.01-28.28,6.73-2.24,20.96-4.38,24.78-10.73,1.52-2.52,1.05-4.36-.77-6.54s-3.05-2.62-5.67-2.96c-6.76-.9-14.05.52-17.17,7.25-1,2.16-.77,4.99-4.16,4.98-4.15-.01-8.37-.17-12.47-.27-3.66-.09-6.95.96-5.34-4.36,1.91-6.32,6.72-12.21,11.95-16.13,14.01-10.5,46.71-10.36,55.05,7.54,1.46,3.13,2.25,5.76,2.53,9.71l.12,50.78c-1.11,1.95-4.58,1.81-6.76,1.81-4.21,0-10.03.48-14.07-.2s-1.4-5.11-2.89-6.35h.01ZM455.4,89.81c-1.72.33-4.98,1.77-7.02,2.56-5.65,2.18-12.69,3.72-15.91,8.83-1.99,3.16-1.54,5.82,1.02,8.48,4.04,4.2,13.84,2.96,18.62.6,1.33-.66,3.96-2.15,4.6-3.46.76-1.55.65-2.6.66-3.98.02-3.23.47-8.84,0-11.76-.19-1.16-.86-1.49-1.97-1.28h0Z"/><path class="cls-1" d="M402.11,98.24c.92.61.39,2.85.1,3.89-3.14,11.23-11.51,19.51-22.39,23.21-4.45,1.51-5.88,1.16-10.39,1.37-3.18.15-4.47.15-7.66,0-4.4-.21-5.82.09-10.15-1.37-8.46-2.84-17.18-9.49-20.74-17.9-8.33-19.65-3.64-46.13,17.64-55.17,17.91-7.61,41.59-2.7,50.76,15.56,2.28,4.54,4.58,13.42,5.04,18.47.19,2.11-.19,3.9-2.48,4.42l-50.35.04c-1.31.7-1.19,1.65-1.14,2.96.16,4.3,1.16,8.76,3.85,12.22,6.66,8.54,19.42,7.8,24.51-1.87.95-1.79,1.44-5.73,3.55-6.29l17.18.14c1.05,0,1.93-.17,2.66.31h0ZM379.8,78.41c.93-1.01,0-2.9-.46-4.06-2.33-6-6.58-9.92-13.25-10.03-7.07-.12-11.54,3.51-14.16,9.86-.77,1.86-1.58,4.08.94,4.81,8.41-.25,16.46.24,25.46,0,.53-.01,1.09-.16,1.47-.57h0Z"/><path class="cls-1" d="M643.32,48.79c7.59-.59,19.32,2.01,25.89,5.89,5.66,3.34,11.57,10.1,13.21,16.55.37,1.44.68,3.28-1.02,3.89l-17.94-.05c-1.98-.4-2.09-2.43-2.96-4-3.59-6.55-10.31-7.78-17.27-7.23s-11.88,7.11-4.35,11.57c.97.58,4.37,2.11,5.38,2.3,4.97.97,10.81,2.01,15.67,3.29,8.39,2.22,18.72,5.29,22.6,13.88,5.84,12.91-2.23,24.23-14.14,29.15-7.9,3.26-12.92,3.55-21.15,3.43-4.65-.06-6.93-.49-11.49-1.87-10-3.02-17.51-8.4-21.53-18.31-.75-1.86-3.46-7.64-.23-8.14l18.17.04c1.22.36,3,5.35,3.86,6.7,4.44,6.95,12.93,7.8,20.37,5.91,2-.51,5.02-2.93,5.23-5.09.46-4.71-3.04-7.18-7.09-8.54-6.06-2.03-12.24-2.79-18.41-4.39-10.39-2.69-20.37-5.81-23.29-17.5-1.52-6.06,1.63-14.29,6.06-18.55,5.95-5.72,16.38-8.3,24.43-8.93h0Z"/><path class="cls-1" d="M724.91,48.79c15.44-1.38,32.84,5.74,38.8,20.81.64,1.62,2.49,6.62,2.7,8.1.48,3.41-1.28,3.73-4.12,3.91-3.3.21-6.82.02-10.08,0-4.19-.02-7.37,1.07-8.66-3.84-.79-3.01-.89-3.92-2.74-6.62-6.51-9.46-19.74-7.94-24.77,2.12-3.52,7.04-3.68,22.11-.32,29.2,1.36,2.88,5.83,7.79,9.12,8.16,2.04.23,8.34.22,10.05-.51,3.62-1.55,6.91-5.33,8.26-9.02.64-1.76.77-6.5,2.92-7.16l18.62-.12c2.18.29,1.94,3.42,1.68,5.06-.45,2.81-3.65,10.55-5.26,12.98-4.33,6.52-10.17,10.84-17.55,13.41-4.44,1.55-13.13,2.17-14.64,2.17s-4.55,0-9.81-.76c-1.5-.22-4.91-1.38-6.45-1.95-12.24-4.49-19.72-14.81-21.99-27.45-1.28-7.12-1.3-11.3,0-18.43,3.21-17.66,16.6-28.5,34.24-30.07h0Z"/><path class="cls-1" d="M56.8,3.4c2.94.7,5.54,3.42,7.37,5.74,7.97,10.09,11.56,20.38,15.79,32.21,3.12,8.73,4.33,16.58,5.67,25.77,1.13,7.73,1.13,16.21.01,23.93-.27,1.84-2.11,13.07-3.21,17.43-3.29,13.11-11.75,35.23-22.44,44.04-1.83,1.51-3.74,2.66-4.57-.48.5-8.27.2-16.13.84-24.31.15-1.96.2-4.94.36-6.9.27-3.24.84-14.51.97-16.79.57-9.65.95-19.13.96-28.82s-.65-17.7-1.31-27.26c-.23-3.27-.84-15.05-.99-16.94-.43-5.49-.77-11.86-.82-17.48-.02-2.24-.44-4.61-.26-6.96.11-1.42.33-2.42,1.62-3.2v.02Z"/><path class="cls-1" d="M276.28,51.67c.3-.34,1.23-.77,1.72-.8l19.88.06c2.69.8,1.2,7.29,1.61,9.43.08.41.47.77.89.8s5.13-5.29,6.07-6.09c3.8-3.22,9.53-5.26,14.51-5.41,1.79-.05,2.85-.06,3.44,1.86-.34,5.03.64,11.13.06,16.03-.41,3.46-4.27,1.75-6.36,1.77-.94,0-6.45.29-8,.66-1.43.35-5,2.2-6.31,3.05-1.84,1.19-4.51,3.16-4.53,5.55-.11,14.73.58,29.62.24,44.4-.17,1.41-.69,2.35-2.15,2.65-5.93-.29-13.05.76-18.85.11-1.15-.13-2.33-.66-2.71-1.85l-.06-70.52c0-.54.22-1.32.57-1.71h-.02Z"/><path class="cls-1" d="M96.16,19.01c3.72-.86,7.32,4.46,9.05,7.17,4.01,6.3,7.28,16.23,8.91,23.49,1.83,8.17,3.31,18.66,3.48,27,.2,9.84-1.19,18.61-3.07,28.15s-5.56,22.8-12.07,30.41c-2.27,2.66-6.52,5.38-8.67,1.01-1.18-2.39-1.08-9.89-.91-12.76.28-4.9,1.48-21.85,1.67-25.21.48-8.64,1.14-16.39.98-25.2-.09-4.79-.74-9.21-.98-13.9-.17-3.29-.77-13.38-.92-14.92-.52-5.39-1.05-12.37-.76-17.74.12-2.21.6-6.88,3.3-7.5h-.01Z"/><path class="cls-1" d="M127.35,40.85c1.92-.58,4.07,2.05,5.1,3.44,1.8,2.41,2.96,5.18,4.02,7.98,3.9,10.23,4.36,26.17,4.14,32.82s-1.17,10.02-2.27,15.01c-.88,4.01-4.59,12.41-7.6,15.2-2.21,2.05-4.79,1.91-5.23-1.44-.33-2.48-.02-4.96-.01-7.41.04-12.61,1.2-24.79.71-37.45-.27-7.01-1.05-14.1-.97-21.13.01-1.12.21-4.27.55-5.21.2-.54,1.01-1.65,1.55-1.81h.01Z"/></svg>