<?xml version="1.0" encoding="UTF-8"?><svg id="Layer_1" xmlns="http://www.w3.org/2000/svg" viewBox="0 0 1602.96 243.37"><defs><style>.cls-1{fill:#5a4c4c;}</style></defs><path class="cls-1" d="M1442.18.01l-.24,185.76h-24.48c-.08,0-1.2-1.12-1.2-1.2v-7.92c-11.03,13.87-34.06,14.21-48.31,5.36-26.34-16.36-28.01-59.57-4.48-79.05,10.97-9.08,28.28-11.78,41.46-6.41,4.14,1.68,8.17,4.82,10.86,8.34l.94-.48.02-104.41h25.44-.01s0,.01,0,.01ZM1392.64,117.26c-24.48,2.6-25.1,43.76-.49,47.26,31.56,4.49,32.95-45.13,6.11-47.39-1.76-.15-3.85-.06-5.62.12h0Z"/><path class="cls-1" d="M211.65.01l.02,105.85.94.48c9.76-14.16,33.51-16.23,47-6.69,6.86,4.85,13.95,16.91,13.95,25.41v60l-.72.72h-25.2c-.62-5.64-.46-11.36-.5-17.06-.06-7.22,0-14.71,0-22.08,0-6.45,1.25-14.86-1.19-20.85-4.59-11.26-23.84-10.36-30.2-1.42-1.47,2.06-3.63,7.36-3.63,9.81v50.88l-.72.72h-24.96L186.2.02h25.45Z"/><path class="cls-1" d="M1602.96,184.81c-.46.93-.67.91-1.63.99-5.5.45-17.78.62-23.11,0-.7-.08-1.23-.06-1.66-.74v-7.68l-.96-.49c-6.36,10.24-20.76,11.91-31.85,10.75-19.23-2.01-34-22.07-35.35-40.48-2.23-30.17,15.28-56.09,47.77-53.06,6.77.63,16.02,4.69,19.44,10.8l.96-.49v-8.4c8.08.45,16.76-.59,24.76-.03.97.07,1.18.08,1.63.99v87.84h0ZM1553.42,117.26c-13.77,1.55-19.13,14.36-18.07,26.93,2.29,27.1,38.91,27.48,41.63,1.44,1.68-16.05-5.52-30.4-23.56-28.37Z"/><path class="cls-1" d="M30.24,243.37h-11.04c-3.46-.96-7.65-1.71-10.89-3.27-2.97-1.44-5.75-4.28-8.31-6.33v-.96l12.96-15.15c3.59,2.29,8.69,5,12.49,1.48.57-.53,2.39-4.26,2.39-4.81v-118.32h25.2l.72.72v120c0,11.48-8.48,23.25-19.77,25.83,0,0-3.75.81-3.75.81Z"/><path class="cls-1" d="M808.2.01v116.39l.96.49c11.64-21.73,50.15-22.85,59.74,1.2.57,1.43,2.65,8.21,2.65,9.35v57.6c-2.1,1.42-5.77.73-8.16.24v-56.88c0-7.9-7.12-17.09-14.66-19.41-18.4-5.66-38.49,5.25-40.04,25.18l-.07,50.81-.38.58-7.5-.24L801.01.01h7.2-.01Z"/><path class="cls-1" d="M1015.05.01v185.76h-6.96c-.18,0-.78-.49-1.12-.56l-.11-.62L1007.37.01h7.68Z"/><path class="cls-1" d="M1054.4.01l.5,2.62-.23,182.69-.58.38c-2.65-.19-7.6,1.45-7.4-2.55,1.42-60.1-1.8-120.46,0-180.53.03-.91-.04-1.82.5-2.62h7.2s.01,0,.01,0Z"/><path class="cls-1" d="M1106.71,96.01c.79,2.73.65,5.67,0,8.39,0,.41.98.33,1.21.26.31-.1,3.22-3.9,4.33-4.8,12.52-10.14,37.91-7.69,44.39,8.63,1.94-.66,2.58-2.91,4.05-4.34,17.15-16.82,52.31-13.71,59.74,11.81.33,1.14,1.95,7.61,1.95,8.13v60.96l-.72.72h-24.48c-1.79,0-.63-3.37-.68-4.08-.78-12.88,0-26.15-.02-38.86-.01-11.21,1.38-24.93-13.68-25.24-14.01-.29-17.75,8.44-18.52,20.88l.02,47.3h-25.2l-.72-.72v-55.68c0-.22-.95-3.77-1.1-4.18-5.05-13.47-30.48-8.28-30.08,7.06l-.25,52.55c-.44.8-1.08.87-1.9.98-4.94.64-16.94.41-22.12,0-.92-.07-1.74-.28-2.62-.5v-88.56l.72-.72h25.68Z"/><path class="cls-1" d="M1266.05,149.77c4.46,18.33,27.22,19.6,41.13,11.13,1.23-.75,4.1-3.66,5.09-3.4,1.95.51,11.99,12.81,14.76,14.57,1.3,1.44-1.11,3.08-2.2,4.09-12,11.04-31.67,13.62-47.28,10.84-58.37-10.42-49.45-97.69,15.16-92.92,21.33,1.57,36.39,18.05,40.42,38.29.76,3.82,1.73,12.6,1.07,16.21-.1.54-.24.9-.72,1.2h-67.43s0,0,0,0ZM1267.25,131.53h38.39l.65-1.11c-4.01-13.39-17.45-17.82-29.8-12.2-3.85,1.75-8.82,7.24-9.75,11.39-.15.65-.43,1.65.5,1.92h.01Z"/><path class="cls-1" d="M112.18,94.2c26.41-3.2,51.16,11.26,56.14,38.19,7.83,42.34-39.77,69.58-74.88,48.5-37.52-22.53-24.83-81.41,18.75-86.68,0,0-.01-.01-.01-.01ZM135.17,159.68c10.81-10.81,8.54-36.94-7.29-42.04-21.39-6.9-34.08,13.44-28.28,32.6,4.61,15.21,24.26,20.76,35.57,9.44Z"/><path class="cls-1" d="M293.72,185.77v-89.76h25.2l.72.72v9.84c1.11.27.79-.21,1.1-.61,12.37-15.94,39.19-16.45,52.16-1.06,14.93,17.73,5.44,57.11,8.2,79.21l-.74,1.66h-24.48l-.72-.72v-52.8c0-3.51-2.33-8.99-5.05-11.27-7.45-6.23-23.72-3.84-28.16,5.41-.35.74-2.31,6.84-2.31,7.29v51.36l-.72.72h-25.2s0,0,0,0Z"/><path class="cls-1" d="M413.7,113.77c2.15-2.24,3.8-4.97,6.23-6.97,13.57-11.12,38.73-7.69,45.6,9.37.93.87,4.18-4.76,4.81-5.51,16.43-19.32,52.04-11.45,53.76,16.77,1.13,18.63-.89,38.39-.02,57.14l-.45.99-6.44.14-.79-1.13c-.78-17.02,1.03-34.94.02-51.86s-7.95-26.27-26.19-24.72c-13.15,1.12-20.51,11.81-21.36,24.24-1.16,16.96.91,35.24.02,52.34l-.21.75-7.5.24-.47-1.45c-.97-18.14,1.37-37.75.04-55.72-.86-11.68-7.28-20.03-19.46-20.59-15.96-.74-26.02,8.16-27.61,23.95l-.05,53.23-.38.58c-.62.43-6.92.59-7.71-.51v-82.8h7.44l.72.72v10.8h0Z"/><rect class="cls-1" x="1464.26" y="96.01" width="26.4" height="89.76"/><path class="cls-1" d="M968.02,119.53v-16.56l.8-.64c2.3.13,5.54-.8,7.36.64v82.32c-2.39.49-6.06,1.18-8.16-.24v-16.08c-2.43,2.43-4.07,5.7-6.47,8.17-12.52,12.88-32.91,13.66-47.91,4.7-27.21-16.25-26.74-59.99.62-76,14.59-8.54,34.84-7.4,47.05,4.8,2.64,2.64,4.44,5.97,6.71,8.89h0ZM929.5,108.13c-37.3,4.41-37.65,71.28,5.18,72.37,45.7,1.16,46.25-78.45-5.18-72.37Z"/><path class="cls-1" d="M620.55,168.97c-1.13-.23-.77.14-1.08.62-10.53,16.45-28.18,22.77-46.91,15.46-36.97-14.44-34.73-73.13,3.73-83.13,18.31-4.76,33.2.79,43.18,16.52.31.48-.05.85,1.08.62v-16.08l.72-.72h6.96l.48,82.32-.21.75c-.47.68-7.08.91-7.95-.27v-16.09h0ZM582.03,108.13c-17.27,2.04-27.67,19.49-27.72,35.64-.13,44.17,57.9,49.82,66.12,9.01,5.11-25.41-11.28-47.85-38.4-44.64h0Z"/><path class="cls-1" d="M713.67,166.59l6.37-2.36c2.95,3.93,5.62,8.39,9.77,11.38,12.92,9.32,41.98,6.68,38.44-14.45-2.92-17.41-44.89-14.44-48.62-34.89-5.51-30.17,39.81-34.42,50.14-11.35l-6.05,3.59-.64-.14c-4.98-10.12-18.65-13.65-28.64-9.01-9.28,4.32-9.73,17.17-1.27,22.57,13.11,8.37,39.94,8.47,43.24,27.79,5.15,30.14-36.83,35.01-54.34,19.31-3.55-3.18-7.1-7.94-8.4-12.45h0s0,0,0,0Z"/><path class="cls-1" d="M667.1,185.29c-1.71.47-8.06,1.37-8.56-.81l.41-82.23h7.44l.72.72v12.24c1.95-1.52,2.94-3.94,4.55-5.77,7.86-8.91,22.5-12.32,32.84-5.95l-3.56,6.31c-11.17-4.92-22.97-.21-29.12,9.88-1.68,2.75-4.72,9.48-4.72,12.56v53.05Z"/><circle class="cls-1" cx="1477.68" cy="55.45" r="16.57"/><circle class="cls-1" cx="40.66" cy="55.45" r="16.56"/></svg>