<?xml version="1.0" encoding="UTF-8"?><svg id="Layer_1" xmlns="http://www.w3.org/2000/svg" viewBox="0 0 452.8 59.5"><defs><style>.cls-1{fill:#5a4c4c;}</style></defs><path class="cls-1" d="M33.9,6.1c0-4.9-4.7-6.1-8.4-6.1v.7c2.2,0,3.9.7,3.9,2.5,0,1-.7,2.5-3,2.5-1.7,0-5.4-1-8.1-2-3.2-1.2-6.1-2.2-8.6-2.2C4.8,1.5,1.3,5.2,1.3,9.4c0,3.7,2.7,4.9,3.7,5.4l.2-.5c-.5-.5-1.2-1-1.2-2.5,0-1,1-2.7,3.4-2.7,2.2,0,5.2,1,9.1,2.2,3.4,1,7.1,1.7,9.1,2v7.6l-3.7,3.2v.2l3.7,3.2v10.6c-2,1.2-4.2,1.5-6.1,1.5-3.7,0-6.9-1-9.6-3.9l10.1-4.9V13.8l-12.1,5.4c1-3.2,3.7-5.4,6.4-6.9l-.3-.7C6.6,13.6,0,20.5,0,28.8c0,9.8,8.1,17.2,17.2,17.2,9.8,0,16.2-7.9,16.2-16h-.4c-1.5,3.2-3.7,6.1-6.4,7.6v-10.1l3.9-3.2v-.2l-3.9-3.2v-7.6c3.7,0,7.3-2.5,7.3-7.2ZM12.5,33.2l-3,1.5c-1.7-2.2-2.7-5.2-2.7-9.3,0-1.7,0-3.7.5-5.2l5.2-2.2v15.2ZM38.6,38.9l-3.2,2.5.5.5,1.5-1.2,5.4,4.9,7.4-4.9-.2-.5-2,1.2-2.5-2.5v-16.8l2-1.5,4.2,3.4v15c0,9.3-2,10.8-6.1,12.3v.7c6.9.2,13.3-2,13.3-14v-16.1l2.2-1.7-.5-.5-2,1.5-6.2-5.2-6.9,5.2V1h-.5l-8.6,5.9v.5c1,.5,2.5,1,2.5,3.7l-.3,27.8ZM83.6,36.2l-6.1,4.7-6.1-4.9v-3l11.6-7.9v-.2l-6-8.9-12.8,6.9v16.2l-2.5,2,.5.5,2.2-1.7,8.4,6.1,11.1-8.9s-.3-.9-.3-.9ZM71.3,32v-12.1l.5-.2,5.4,8.6s-5.9,3.7-5.9,3.7ZM130.6,3.9c0-.7-.2-1.5-.5-2.2h-.5c-.7,2-1.7,3-4.2,3-2.2,0-3.7-1.2-4.7-2.2l-7.1,8.1.5.5,2.5-2.2c1.5,1.2,2.7,2.2,6.1,2.5v20.4l-14.5-24.9c-1.2-2-3-4.7-6.4-4.7-3.9,0-7.4,3.4-6.9,8.9h.7c.2-1.5,1-3.2,2.7-3.2,1.2,0,2.5,1.2,3.2,2.5v8.1c-4.4,0-7.4,2-7.4,5.7,0,2,1,4.9,3.9,5.7v-.5c-.5-.5-.7-1-.7-1.7,0-1.2,1-2.2,2.7-2.2h1.2v10.3c-5.2,0-9.3,3-9.3,7.9s3.9,6.9,8.4,6.6v-.5c-2.7-.2-3.9-1.5-3.9-3.2,0-2.2,1.5-3.2,3.4-3.2,2,0,3.7,1.2,4.9,2.7l7.1-7.9-.5-.5-1.7,2c-2.7-2.5-4.2-3.2-7.4-3.7V11.3l19.8,34.4h1.5V11.3c3.6-.2,7.1-3.2,7.1-7.4ZM148.5,36.2l-6.1,4.7-6.1-4.9v-3l11.6-7.9v-.2l-5.9-8.9-12.8,6.9v16.2l-2.5,2,.5.5,2.2-1.7,8.4,6.1,11.1-8.9c-.1,0-.4-.9-.4-.9ZM136.2,32v-12.1l.5-.2,5.4,8.6c.1,0-5.9,3.7-5.9,3.7ZM188.6,18.7l-1.7,1.2-4.7-3.9-5.4,4.9,2.2,2.2v18.4l-5.9-3.7v-15.2l2-1.2-5.7-5.4-5.4,4.9,2.2,2.2v17.7l-.7.5-5.2-3.7v-14.7c0-3.4-1.7-4.4-3.7-5.7-1.7-1.2-2.7-2-2.7-3.7,0-1.5,1.5-2.2,2.2-2.7v-.5c-2,0-7.1,2-7.1,6.6,0,2.5,1.2,3.4,2.5,4.7,1.2,1.2,2.5,2.2,2.5,4.4v14.3l-2.7,2,.5.5,2.5-2,5.7,4.9,6.1-4.2,6.9,4.2,13-7.6v-16.5l3.2-2.5-.6-.4h0ZM234.4,5.2l-2.5,2.2-5.4-4.9-8.1,5.9V3h-.7l.2,39.8c-.7,0-3-.5-4.7-1l-.5-33.2c0-2.5-1.7-5.9-6.1-5.9s-7.4,3.4-7.4,6.9h.7c.2-1.5,1-2.7,2.5-2.7s2.7,1,2.7,4.2v9.6c-4.4.2-7.1,2.7-7.1,5.9,0,2,1,4.9,3.9,4.9v-.5c-1-.5-1.2-1.2-1.2-1.7,0-1.5,1.2-2,3.2-2h1v15.2c-3.7,1.2-5.2,3.9-5.2,6.9,0,4.2,3.2,7.1,8.1,7.1,3.4,0,6.4-.5,9.3-1.2,2.5-.5,5.7-1.2,7.1-1.2,2,0,2.7,1,2.7,2.2,0,1.7-.7,2.5-1.7,2.7v.5c3.9-.7,6.4-3.2,6.4-6.9s-3.7-5.9-7.6-5.9c-2,0-6.1.7-9.1,1.2-3.4.7-6.9,1.2-7.9,1.2-1.7,0-3.7-.7-3.7-3.2,0-2,1.7-3.7,5.9-3.7,2.2,0,4.9.2,7.6,1,3,.7,5.7,1.5,8.1,1.5,3.7,0,6.9-1.2,6.9-6.4V8.1l3-2.5-.4-.4h0ZM224.3,20.2c-.7.7-1.7,1.5-3,1.5s-2.5-.7-3-1.5v-10.9l2.5-1.7,3.4,3.2c.1,0,.1,9.4.1,9.4ZM224.3,27.5c-.5-.5-1.7-1.2-3-1.2s-2.5.7-3,1.2v-6.4c.5.5,1.7,1.2,3,1.2s2.5-.7,3-1.2v6.4ZM224.3,39.1c0,2-1.2,3.9-3.9,3.9h-2v-14.5c.5-.5,1.7-1.2,3-1.2s2.2.7,3,1.2c-.1,0-.1,10.6-.1,10.6ZM258,21.6l-7.9-5.7-12.1,6.9v16l-2.5,2,.2.5,2-1.5,7.9,5.9,12.3-7.4c.1.1.1-16.7.1-16.7ZM244.7,37.1v-17.7l6.1,4.4v17.5c.1,0-6.1-4.2-6.1-4.2ZM281.4,16.5h-.5c-.7.5-1.5,1-2.2,1-1,0-2.2-.5-2.7-1.2h-.5l-4.2,4.7-4.2-4.7-7.4,4.9.2.5,2-1.2,2.5,2.7v15.5l-3.2,2.5.5.5,1.5-1.2,5.9,4.9,7.6-5.2-.2-.5-2.2,1.2-3-2.5v-17.2c1.2,1.2,2.7,2.5,4.4,2.5,3.4.2,5.4-3.3,5.7-7.2h0ZM310.9,40.1l-8.4,5.7-11.3-17.2,8.1-12.5h.5c1,1,2.5,2,4.2,2s3-1,3.7-2h.5c-.2,4.9-3.7,7.9-6.1,7.9s-3.7-1.2-5.2-2l-.7,1.2,12.3,18.2,2.5-1.5v.2h-.1ZM283.8,38.9l-3.2,2.5.5.5,1.5-1.2,5.4,4.9,7.4-4.9-.5-.5-2,1.2-2.5-2.5V1h-.2l-8.9,5.9v.5c1,.5,2.5.7,2.5,3.7,0,0,0,27.8,0,27.8ZM351.7,6.1c0-4.9-4.7-6.1-8.4-6.1v.7c2.2,0,3.9.7,3.9,2.5,0,1-.7,2.5-3,2.5-1.7,0-5.4-1-8.1-2-3.2-1-6.1-2-8.6-2-4.9,0-8.4,3.7-8.4,7.9,0,3.7,2.7,4.9,3.7,5.4l.2-.5c-.7-.5-1.5-1-1.5-2.5,0-1,1-2.7,3.4-2.7,2.2,0,5.2,1,9.1,2.2,3.4,1,7.1,1.7,9.1,2v7.6l-3.7,3.2v.2l3.7,3.2v10.6c-2,1.2-4.2,1.5-6.1,1.5-3.7,0-6.9-1-9.6-3.9l10.1-4.9V13.8l-12.3,5.4c1.2-3.2,3.9-5.4,6.4-7.1l-.2-.5c-7.4,2-14,8.6-14,17,0,9.8,8.1,17.2,17.2,17.2,9.8,0,16.2-7.9,16.2-16h-.5c-1.5,3.2-3.7,6.1-6.4,7.6v-10.1l3.9-3.2v-.2l-3.7-3.2v-7.4c3.9,0,7.6-2.5,7.6-7.2ZM330.3,33.2l-3,1.5c-1.7-2.2-2.7-5.2-2.7-9.3,0-1.7.2-3.7.7-5.2l5.2-2.2-.2,15.2ZM360.3,3.7h-.3l-4.9,4.2v.2l4.2,4.7h.5l4.9-4.2v-.2l-4.4-4.7h0ZM367.7,40.1l-2,1.2-2.5-2.5v-17l2.5-1.7-.5-.5-1.7,1.5-4.4-5.2-7.1,4.9.5.7,1.7-1.2,2.2,2.7v16l-3.2,2.5.2.5,1.7-1.2,5.4,4.9,7.4-4.9-.2-.7h0ZM408.7,39.8l-1.7,1.2-2.7-2.5v-16.6l2.5-2-.5-.5-2,1.7-5.7-5.2-7.4,5.2-5.7-5.2-6.9,5.2-4.4-5.2-7.1,4.9.2.7,1.7-1.2,2.5,2.7v16l-2,2,5.7,4.7,5.4-4.9-2.2-2.2v-16.7l2.2-1.5,3.7,3.4v14.8l-2,2,5.7,4.7,5.4-4.9-2.2-2.2v-16.3l2-1.2,3.9,3.4v14.8l-1.7,1.7,5.7,5.2,7.6-5.2v-.8h0ZM430.1,36.2l-6.1,4.7-6.1-4.9v-3l11.6-7.9v-.2l-5.9-8.9-12.8,6.9v16.7l8.6,6.1,11.1-8.9c-.1.1-.4-.6-.4-.6ZM417.8,32v-12.1l.5-.2,5.4,8.6s-5.9,3.7-5.9,3.7ZM452.5,29.8l-4.7-3.7c3.2-2.7,4.4-6.4,4.4-8.9v-1.5h-.5c-.5,1.2-1.5,2.5-3.4,2.5-2,0-3.2-1-4.4-2.5l-11.1,6.1v8.9l4.2,3.2c-4.2,3.7-4.9,6.1-4.9,8.1,0,2.5,1.2,4.2,3.2,4.9l.2-.5c-.5-.5-1-.7-1-2,0-.7,1-2,3-2,2.5,0,3.9,1.7,4.7,2.5l10.6-6.4v-8.9c0,.2-.3.2-.3.2ZM449.8,22.4c-1.7,3-5.4,5.9-7.6,7.4l-2.7-2.2v-8.6c1,2.5,3.7,4.4,6.4,4.4,1.7,0,2.7-.3,3.9-1ZM445.6,42.1c-1.2-2.7-4.2-4.7-7.1-4.7-.7,0-2.7,0-4.7,1.2,1.2-2,4.4-5.4,8.6-7.9l3,2.5.2,8.9h0Z"/></svg>