<?xml version="1.0" encoding="UTF-8"?>
<svg id="Content" xmlns="http://www.w3.org/2000/svg" width="446.648" height="142.642" version="1.1" viewBox="0 0 446.648 142.642">
  <g id="Spake">
    <path
      d="M352.597,33.266h6.654v-6.661h39.92v6.661h6.652v6.658h6.654v26.605h-53.227v6.659h6.654v6.649h33.266v13.297h-39.92v-6.648h-6.654v-6.648h-6.648v-39.914h6.648v-6.658ZM365.906,39.924v6.649h-6.654v6.65h39.92v-6.65h-6.654v-6.649h-26.611Z"
      fill="#f3f8f2"
    />
    <path
      d="M286.074,53.223h6.654v-6.65h6.648v-6.649h6.654v-6.658h6.654v-6.661h13.307v13.319h-6.652v6.649h-6.654v6.65h-6.654v13.307h6.654v6.659h6.654v6.649h6.652v13.297h-13.307v-6.648h-6.654v-6.648h-6.654v-6.649h-6.648v-6.659h-6.654v26.605h-13.309V0h13.309v53.223Z"
      fill="#f3f8f2"
    />
    <path
      d="M179.621,59.87h6.653v-6.648h39.92v-6.65h-6.654v-6.649h-33.266v-13.319h39.92v6.661h6.653v6.658h6.654v53.211h-53.228v-6.648h-6.653v-6.648h-6.648v-13.309h6.648v-6.659ZM192.928,66.529v13.309h33.266v-13.309h-33.266Z"
      fill="#f3f8f2"
    />
    <path
      d="M139.707,86.486v6.648h-39.918v26.616h-13.303V26.605h53.221v6.661h6.654v6.658h6.654v39.914h-6.654v6.648h-6.654ZM99.789,79.838h33.264v-6.649h6.654v-26.616h-6.654v-6.649h-33.264v39.914Z"
      fill="#f3f8f2"
    />
    <path
      d="M13.302,26.605h53.227v13.319H19.957v13.299h33.265v6.648h6.654v6.659h6.653v13.309h-6.653v6.648h-6.654v6.648H0v-13.297h46.567v-13.309H13.302v-6.659h-6.654v-6.648H0v-13.299h6.649v-6.658h6.654v-6.661Z"
      fill="#f3f8f2"
    />
  </g>
  <g id="Audio">
    <path
      d="M432.982,116.243c4.422,0,7.807,1.126,10.152,3.388,2.344,2.264,3.514,5.534,3.514,9.822s-1.164,7.558-3.502,9.821c-2.334,2.241-5.725,3.367-10.164,3.367s-7.801-1.126-10.135-3.367c-2.336-2.264-3.504-5.534-3.504-9.821s1.168-7.559,3.504-9.822c2.334-2.262,5.711-3.388,10.135-3.388ZM432.982,119.751c-2.658,0-4.666.802-6.037,2.447-1.363,1.624-2.051,4.049-2.051,7.255,0,3.185.687,5.599,2.051,7.234,1.371,1.645,3.379,2.468,6.037,2.468,2.676,0,4.699-.823,6.064-2.468,1.369-1.636,2.051-4.05,2.051-7.234,0-3.206-.682-5.631-2.051-7.255-1.365-1.646-3.389-2.447-6.064-2.447Z"
      fill="#f3f8f2"
    />
    <path
      d="M348.515,116.935h13.412v21.853h10.394v3.203h-26.025v-3.203h10.395v-18.646h-8.176v-3.207ZM356.691,107.169h5.236v5.209h-5.236v-5.209Z"
      fill="#f3f8f2"
    />
    <path
      d="M288.023,120.055v-12.995h5.236v34.932h-5.236v-3.161c-.877,1.245-2.035,2.188-3.486,2.848-1.457.651-3.129.964-5.031.964-3.848,0-6.879-1.17-9.096-3.528-2.207-2.362-3.318-5.609-3.318-9.758,0-4.082,1.115-7.287,3.336-9.626,2.221-2.316,5.246-3.486,9.078-3.486,1.918,0,3.607.324,5.068.974,1.461.649,2.609,1.603,3.449,2.838ZM272.621,129.453c0,3.193.645,5.609,1.932,7.243,1.295,1.636,3.199,2.459,5.723,2.459s4.451-.834,5.766-2.468c1.322-1.656,1.982-4.061,1.982-7.234,0-3.194-.66-5.61-1.982-7.255-1.314-1.646-3.236-2.447-5.766-2.447s-4.428.802-5.723,2.447c-1.287,1.624-1.932,4.049-1.932,7.255Z"
      fill="#f3f8f2"
    />
    <path
      d="M193.22,132.484v-15.593h5.242v15.593c0,2.253.504,3.92,1.52,4.98,1.019,1.062,2.589,1.594,4.711,1.594,2.47,0,4.358-.683,5.669-2.048,1.31-1.386,1.965-3.345,1.965-5.9v-14.219h5.268v25.1h-5.268v-3.768c-.932,1.451-2.197,2.555-3.801,3.303-1.607.748-3.48,1.115-5.625,1.115-3.266,0-5.696-.824-7.288-2.512-1.597-1.689-2.393-4.246-2.393-7.645Z"
      fill="#f3f8f2"
    />
    <path
      d="M141.895,127.655v14.336h-5.268v-3.723c-1.121,1.493-2.529,2.596-4.229,3.312-1.7.715-3.763,1.061-6.194,1.061-3.243,0-5.836-.714-7.774-2.165-1.933-1.441-2.902-3.378-2.902-5.804,0-2.794,1.191-4.916,3.574-6.367,2.382-1.462,5.879-2.188,10.492-2.188h7.034v-.65c-.022-2.014-.666-3.466-1.938-4.373-1.272-.891-3.303-1.344-6.091-1.344-1.787,0-3.59.195-5.409.607-1.825.388-3.601.995-5.328,1.775v-4.137c1.939-.584,3.796-1.03,5.565-1.321,1.777-.282,3.498-.433,5.171-.433,2.637,0,4.894.304,6.762.92,1.868.615,3.384,1.526,4.543,2.761.72.736,1.234,1.666,1.538,2.772.303,1.104.454,2.751.454,4.959ZM131.727,129.355h-1.732c-3.06,0-5.36.424-6.91,1.266-1.548.846-2.316,2.103-2.316,3.791,0,1.518.58,2.687,1.732,3.52,1.159.833,2.767,1.267,4.813,1.267,2.886,0,5.155-.802,6.807-2.382,1.651-1.569,2.484-3.759,2.506-6.542v-.919h-4.9Z"
      fill="#f3f8f2"
    />
  </g>
</svg>
